<svg xmlns="http://www.w3.org/2000/svg" viewBox="0 0 38.14 50.97"><defs><style>.cls-1{fill:#010101;}.cls-2{fill:#61bb46;}.cls-3{fill:#a9ce38;}.cls-4{fill:#f78f21;}.cls-5{fill:#101d11;}</style></defs><g id="Layer_2" data-name="Layer 2"><g id="Layer_1-2" data-name="Layer 1"><path class="cls-1" d="M15.44,31.92C8.12,28,4.57,20.06,8,12.74a14.68,14.68,0,0,1,19.52-7,15,15,0,0,1,2.11,1.2A14.36,14.36,0,0,0,27,5.31a14.9,14.9,0,0,0-19.68,7.5A15.37,15.37,0,0,0,6,17c-1,6.42,1.16,12.44,7.81,16.2,1.67,1,7,3,5.61,1.39l.29-1.3A9.79,9.79,0,0,1,15.44,31.92Z"/><path class="cls-2" d="M21.93,4.63a2.34,2.34,0,0,1,.63,1.23c0,.63,1.74,1.43,2.18,1.32A11.58,11.58,0,0,1,30.32,8a15,15,0,0,0-5.06-2.75l-1-.16.6.43a6.06,6.06,0,0,1-1.39-.63A3.13,3.13,0,0,0,21.93,4.63Z"/><path class="cls-2" d="M29.74,6.38S25,3.31,20.22,3.64L22.68.38s2.11-.18,4,2.29a.51.51,0,0,0,.76.25S29.18,3.45,29.74,6.38Z"/><path class="cls-2" d="M17.08,4.14l2.5-.4,1-1.57L21.49.62S21.77,0,21,0c0,0-5.23-.14-5.52,1.42a1.77,1.77,0,0,1-.73.85,6.37,6.37,0,0,0,0-1.15.73.73,0,0,0-1-.19,2,2,0,0,1-1.07.18,22.69,22.69,0,0,1,.39,4.58s2.48-1.15,3.12-1.4A2.94,2.94,0,0,0,17,2.43s.45,0,0,1.22A.42.42,0,0,0,17.08,4.14Z"/><path class="cls-2" d="M9.46,8.86S11.27,7,11.67,6.74A1.82,1.82,0,0,0,12.2,5.1a11.71,11.71,0,0,1-.07-3.73s-2.22.42-1.67,3.1c0,0,.8,2.39-.35,1.18A12.7,12.7,0,0,1,8.66,3.47C8.54,3,8,3.63,8,3.63A16.12,16.12,0,0,0,5.37,7a6.93,6.93,0,0,1,3.25,1.8S9,9.68,9.46,8.86Z"/><path class="cls-2" d="M5.53,7.89A6.22,6.22,0,0,0,8.12,9.4s.71-.15.05.9a8.33,8.33,0,0,0-.76,1.34,2.14,2.14,0,0,1-1.8-.46s1.16,1.37.41,2.41a3.09,3.09,0,0,1-2.58,2s-.6.23.57.27c0,0,1.14.2,2.2-1.8A6.09,6.09,0,0,1,3.3,18.4,17.65,17.65,0,0,1,0,19.13,6.77,6.77,0,0,0,.2,17a6.69,6.69,0,0,1,2.06-4.82s1.19-.42-.49-.45A29.21,29.21,0,0,1,4.43,7.71S4.78,7.26,5.53,7.89Z"/><path class="cls-2" d="M5.35,18S2.88,20.49.22,20.68L0,23.08a7.7,7.7,0,0,0,2.59-1.87A7.73,7.73,0,0,1,.2,24.08a5.55,5.55,0,0,0,.41,2.19,4.53,4.53,0,0,0,.6-.58,4.78,4.78,0,0,1,.44-.63L2,24.28A4.61,4.61,0,0,1,.9,26.63l.41,2.85S3.55,28.32,5.7,24L5.44,22.6a3.43,3.43,0,0,1-.92,1.55A6.48,6.48,0,0,0,5.29,22Z"/><path class="cls-2" d="M7.21,18.58s.51,4.9,2.06,6.8c0,0,.39.73,2.37,1a2.2,2.2,0,0,1,.94.48l-.78-1.16s-1.44-.62-1.76-1.4a3,3,0,0,0,1.91.93,7.68,7.68,0,0,1-1.22-2.89,1.37,1.37,0,0,0-1-.92A6.92,6.92,0,0,1,7.21,18.58Z"/><path class="cls-2" d="M7.58,14.93s-.8,1.06.36,3.27a4.62,4.62,0,0,0,1.13,2s.36.37.5-1.3c0,0,.14-1,.86-1.17a1.25,1.25,0,0,0,.8-1.73,6.32,6.32,0,0,0-2.15-3.47s-.23-.37-.7.62L8,14l.19.91-.52-.18Z"/><path class="cls-2" d="M9,11.59s2.29,1.81,2.53,3.75a2.26,2.26,0,0,0,1.64-1.81l-.43-1.08a6.53,6.53,0,0,0,2-.1A14.79,14.79,0,0,0,18.16,10S17,9.72,16.58,9.58s-2-1.73-3.06-1.89a2.44,2.44,0,0,0-2,.85,4.24,4.24,0,0,1,1.73.76,11.76,11.76,0,0,0-1.94-.37s-1.16.76-.82,1.09a13.7,13.7,0,0,1,2.62,1.44,15.59,15.59,0,0,1-2.76-1.13A2.18,2.18,0,0,0,9,11.59Z"/><path class="cls-2" d="M17.38,5.15a3,3,0,0,1,2.39,1.12A4.21,4.21,0,0,1,18,5.84l-1-.45s-1,.16-.85.66c0,0,.38,1.32-.85.11,0,0-2.22.48-1.1,1a16.46,16.46,0,0,0,3.5,1.74,5.3,5.3,0,0,0,3.66-.67s1.27-.33,1.56-.44.86-.42.25-.85a11.78,11.78,0,0,1-1.55-1.6,2.14,2.14,0,0,0-2.11-.57A9.56,9.56,0,0,0,17.38,5.15Z"/><path class="cls-1" d="M28.4,31.48a19.07,19.07,0,0,1,.38,7.35C26.63,45,19.61,51,19.61,51s10.78-12.34,7-19.49H28.4"/><path class="cls-2" d="M11.2,27.42s3.23,3.82,5.08,3.75,2.11-1.29,2.82-1-1.27-.89-2.57-.57c0,0,2.26-.57.71-.81s-3.65.27-2.54-.87A5.9,5.9,0,0,0,11.2,27.42Z"/><path class="cls-1" d="M13.57,30.78a19.25,19.25,0,0,0,13.86,2.55l.48,1.85S20,38,11.46,31.6l2.2-.82"/><path class="cls-3" d="M30,28.51C29,25.25,29.44,17.75,29.8,16a14,14,0,0,1,.69-2.12.38.38,0,0,0-.65-.37,32.19,32.19,0,0,0-4.05,6.86c-4.86,11.41,5.67,19,7,19.86,0,0,0,0,0,0a10.56,10.56,0,0,1-1.94-5.84A27.36,27.36,0,0,0,30,28.51Z"/><path class="cls-4" d="M20.51,16.75s1.75-4.82,9.85-3.36a.24.24,0,0,1,.21.29c-.16.51-.61,1.48-1.67.9A27.46,27.46,0,0,0,20.51,16.75Z"/><path class="cls-1" d="M38.14,34.62s-13.07-6.29-9.19-17l.05-.1L29.8,16S29.46,24.07,38.14,34.62Z"/><path class="cls-1" d="M38.14,34.62s-13.07-6.29-9.19-17l.05-.1L29.8,16S29.46,24.07,38.14,34.62Z"/><path class="cls-5" d="M30,13.84a.38.38,0,0,1-.75,0,.38.38,0,1,1,.75,0Z"/><path class="cls-2" d="M6.37,26.86a16,16,0,0,0,6.32,6.57s-1.6,5.6-4.61,3.36c0,0,3.43-1,2.49-1.83s-.7,1.14-2.82,1.23c0,0-6.58-2.73-1.11-3.68,0,0-2-1-3.15.26,0,0,2.69-2.1,2.09-3.3s0-.08,0-.08S3,33.78,2.85,31.63c0,0-.89-.74-.92-1.41,0,0,4.21-3.23,3.93-4.57Z"/></g></g></svg>